# AST/ASF file generated using VICON BodyLanguage
# -----------------------------------------------
:version 1.10
:name VICON
:units
  mass 1.0
  length 0.45
  angle deg
:documentation
   .ast/.asf automatically generated from VICON data using
   VICON BodyBuilder and BodyLanguage model FoxedUp or BRILLIANT.MOD
:root
   order TX TY TZ RX RY RZ
   axis XYZ
   position 0 0 0  
   orientation 0 0 0 
:bonedata
  begin
     id 1 
     name lhipjoint
     direction 0.702568 -0.596508 0.388042 
     length 2.56661 
     axis 0 0 0  XYZ
  end
  begin
     id 2 
     name lfemur
     direction 0.34202 -0.939693 0  
     length 6.58374  
     axis 0 0 20  XYZ
    dof rx ry rz
    limits (-160.0 20.0)
           (-70.0 70.0)
           (-60.0 70.0)
  end
  begin
     id 3 
     name ltibia
     direction 0.34202 -0.939693 0   
     length 6.62538   
     axis 0 0 20   XYZ
    dof rx
    limits (-10.0 170.0)
  end
  begin
     id 4 
     name lfoot
     direction 0.10455 -0.287249 0.952133   
     length 2.26699   
     axis -90 7.62852e-016 20   XYZ
    dof rx rz
    limits (-45.0 90.0)
           (-70.0 20.0)
  end
  begin
     id 5 
     name ltoes
     direction 1.53572e-011 -4.22322e-011 1   
     length 1.12949   
     axis -90 7.62852e-016 20   XYZ
    dof rx
    limits (-90.0 20.0)
  end
  begin
     id 6 
     name rhipjoint
     direction -0.728055 -0.574632 0.373811   
     length 2.66432  
     axis 0 0 0  XYZ 
  end
  begin
     id 7 
     name rfemur
     direction -0.34202 -0.939693 0   
     length 6.66732   
     axis 0 0 -20   XYZ
    dof rx ry rz
    limits (-160.0 20.0)
           (-70.0 70.0)
           (-70.0 60.0)
  end
  begin
     id 8 
     name rtibia
     direction -0.34202 -0.939693 0   
     length 6.59288   
     axis 0 0 -20   XYZ
    dof rx
    limits (-10.0 170.0)
 end
 begin
     id 9 
     name rfoot
     direction -0.119193 -0.327479 0.93731   
     length 2.38061  
     axis -90 -7.62852e-016 -20   XYZ
    dof rx rz
    limits (-45.0 90.0)
           (-20.0 70.0)
  end
  begin
     id 10 
     name rtoes
     direction -1.53547e-011 -4.21827e-011 1   
     length 1.17899   
     axis -90 -7.62852e-016 -20   XYZ
    dof rx
    limits (-90.0 20.0)
  end
  begin
     id 11 
     name lowerback
     direction -0.000416114 0.999912 -0.0132284   
     length 2.12109   
     axis 0 0 0   XYZ
    dof rx ry rz
    limits (-20.0 45.0)
           (-30.0 30.0)
           (-30.0 30.0)
  end
  begin
     id 12 
     name upperback
     direction -0.00136371 0.99809 0.0617608   
     length 2.10067   
     axis 0 0 0   XYZ
    dof rx ry rz
    limits (-20.0 45.0)
           (-30.0 30.0)
           (-30.0 30.0)
  end
  begin
     id 13 
     name thorax
     direction -3.43026e-005 0.997776 0.0666515   
     length 2.10618   
     axis 0 0 0   XYZ
    dof rx ry rz
    limits (-20.0 45.0)
           (-30.0 30.0)
           (-30.0 30.0)
  end
  begin
     id 14 
     name lowerneck
     direction 0.0398646 0.998418 0.0396592   
     length 1.83817   
     axis 0 0 0   XYZ
    dof rx ry rz
    limits (-20.0 45.0)
           (-30.0 30.0)
           (-30.0 30.0)
  end
  begin
     id 15 
     name upperneck
     direction -0.0367268 0.961527 -0.272244   
     length 1.81975   
     axis 0 0 0   XYZ
    dof rx ry rz
    limits (-20.0 45.0)
           (-30.0 30.0)
           (-30.0 30.0)
  end
  begin
     id 16
     name head
     direction -0.0182665 0.99536 -0.0944669  
     length 1.86026  
     axis 0 0 0   XYZ
    dof rx ry rz
    limits (-20.0 45.0)
           (-30.0 30.0)
           (-30.0 30.0)
  end
  begin
     id 17 
     name lclavicle
     direction 0.924239 0.361045 0.124212  
     length 3.26878  
     axis 0 0 0   XYZ
    dof ry rz
    limits (-20.0 10.0)
           (0.0 20.0)
  end
  begin
     id 18 
     name lhumerus
     direction 1 -4.48968e-011 -2.56583e-027   
     length 4.58538   
     axis 180 -30 -90   XYZ
    dof rx ry rz
    limits (-60.0 90.0)
           (-90.0 90.0)
           (-90.0 90.0)
  end
  begin
     id 19
     name lradius
     direction 1 -4.4898e-011 -5.50375e-027   
     length 2.68935   
     axis 180 -30 -90   XYZ
    dof rx
    limits (-10.0 170.0)
  end
  begin
     id 20
     name lwrist
     direction 1 -4.48939e-011 -1.48955e-026   
     length 1.34468   
     axis 9.0955e-015 90 90   XYZ
    dof ry
    limits (-180.0 0.0)
 end
  begin
     id 21 
     name lhand
     direction 1 -4.48936e-011 -2.97907e-026   
     length 0.585058   
     axis 1.90115e-014 90 90   XYZ
    dof rx rz
    limits (-90.0 90.0)
           (-45.0 45.0)
  end
  begin
     id 22 
     name lfingers
     direction 1 -4.49082e-011 -5.96235e-026   
     length 0.471689   
     axis 3.80223e-014 90 90   XYZ
    dof rx
    limits (0.0 90.0)
  end
  begin
     id 23
     name lthumb
     direction 0.707107 -6.3489e-011 0.707107   
     length 0.677253   
     axis -90 45 -3.84942e-014   XYZ
    dof rx rz
    limits (-45.0 45.0)
           (-45.0 45.0)
  end
  begin
     id 24 
     name rclavicle
     direction -0.923098 0.371783 0.0983239   
     length 3.19656  
     axis 0 0 0   XYZ 
    dof ry rz
    limits (-10.0 20.0)
           (-20.0 0.0)
  end
  begin
     id 25 
     name rhumerus
     direction -1 -4.48976e-011 -2.5492e-027  
     length 4.4745   
     axis 180 30 90   XYZ
    dof rx ry rz
    limits (-90.0 60.0)
           (-90.0 90.0)
           (-90.0 90.0)
  end
  begin
     id 26 
     name rradius
     direction -1 -4.48941e-011 -4.36555e-027   
     length 2.93896   
     axis 180 30 90   XYZ
    dof rx
    limits (-10.0 170.0)
  end
  begin
     id 27 
     name rwrist
     direction -1 -4.49044e-011 -1.49032e-026   
     length 1.46948   
     axis 9.0955e-015 -90 -90   XYZ
    dof ry
    limits (-180.0 0.0)
  end
  begin
     id 28
     name rhand
     direction -1 -4.48826e-011 -2.97749e-026   
     length 0.405092   
     axis 1.90115e-014 -90 -90   XYZ
    dof rx rz
    limits (-90.0 90.0)
           (-45.0 45.0)
  end
  begin
     id 29
     name rfingers
     direction -1 -4.49209e-011 -5.96602e-026   
     length 0.326596   
     axis 3.80223e-014 -90 -90   XYZ
    dof rx
    limits (0.0 90.0)
  end
  begin
     id 30
     name rthumb
     direction -0.707107 -6.34776e-011 0.707107   
     length 0.468928   
     axis -90 -45 3.84942e-014   XYZ
    dof rx rz
    limits (-45.0 45.0)
           (-45.0 45.0)
  end
:hierarchy
  begin
    root lhipjoint rhipjoint lowerback
    lhipjoint lfemur
    lfemur ltibia
    ltibia lfoot
    lfoot ltoes
    rhipjoint rfemur
    rfemur rtibia
    rtibia rfoot
    rfoot rtoes
    lowerback upperback
    upperback thorax
    thorax lowerneck lclavicle rclavicle
    lowerneck upperneck
    upperneck head
    lclavicle lhumerus
    lhumerus lradius
    lradius lwrist
    lwrist lhand lthumb
    lhand lfingers
    rclavicle rhumerus
    rhumerus rradius
    rradius rwrist
    rwrist rhand rthumb
    rhand rfingers
  end

#!OML:ASF H:\Punching\Project 1\Capture day 1\Session 1\female.ASF
:FULLY-SPECIFIED
:DEGREES
230
root 0.706973 15.6734 7.07488 12.7171 -6.98993 1.92915
lowerback 0.798648 -1.2383 1.8519
upperback -4.90138 -1.67639 -1.60503
thorax -5.62687 -0.964519 -2.6074
lowerneck -6.05762 8.97058 12.8383
upperneck 32.6768 15.1623 -13.3963
head 14.3072 6.75899 -5.41829
rclavicle 2.7072e-014 -1.0138e-014
rhumerus -39.3827 30.0671 -91.8731
rradius 83.8606
rwrist -18.1605
rhand -12.3402 -10.969
rfingers 7.12502
rthumb 13.7291 -40.4961
lclavicle 2.7072e-014 -1.0138e-014
lhumerus -23.1613 -35.4029 71.564
lradius 99.8136
lwrist 13.1424
lhand -0.130669 17.6855
lfingers 7.12502
lthumb 25.4652 46.0042
rfemur -16.8842 3.50276 18.151
rtibia 30.8585
rfoot -22.0333 -18.1561
rtoes -2.6687
lfemur -30.4526 -4.34441 -9.36919
ltibia 28.4243
lfoot -4.7605 12.5035
ltoes -0.144676
231
root 0.686793 15.6813 7.04235 12.7886 -6.73521 2.04166
lowerback 0.635826 -1.18757 1.83748
upperback -4.92008 -1.61089 -1.6105
thorax -5.54892 -0.930774 -2.61192
lowerneck -6.11283 8.87492 12.762
upperneck 32.5293 15.0014 -13.3718
head 14.2092 6.68454 -5.41307
rclavicle -5.01559e-014 -3.97569e-014
rhumerus -39.6141 29.6216 -91.8916
rradius 83.1297
rwrist -17.8568
rhand -12.465 -10.8522
rfingers 7.12502
rthumb 13.6088 -40.3874
lclavicle -5.01559e-014 -3.97569e-014
lhumerus -25.9919 -35.0192 74.1765
lradius 98.2799
lwrist 12.8203
lhand -0.542088 18.0129
lfingers 7.12502
lthumb 25.071 46.3872
rfemur -17.0256 3.62244 18.1309
rtibia 30.8459
rfoot -22.0067 -18.3656
rtoes -2.31272
lfemur -30.1717 -3.86892 -10.1306
ltibia 29.5639
lfoot -5.78084 12.3736
ltoes -0.834789
232
root 0.669211 15.689 7.0122 12.8775 -6.4859 2.15219
lowerback 0.448964 -1.14682 1.82788
upperback -4.93883 -1.55877 -1.6143
thorax -5.45827 -0.903732 -2.61681
lowerneck -6.18484 8.79222 12.6909
upperneck 32.3768 14.8547 -13.3412
head 14.1159 6.61645 -5.40255
rclavicle 2.22266e-014 2.72335e-014
rhumerus -39.86 29.168 -91.9394
rradius 82.3584
rwrist -17.5391
rhand -12.6643 -10.6546
rfingers 7.12502
rthumb 13.4168 -40.2025
lclavicle 2.22266e-014 2.72335e-014
lhumerus -28.658 -34.4028 76.6244
lradius 96.5951
lwrist 12.4692
lhand -0.831438 18.3502
lfingers 7.12502
lthumb 24.7938 46.763
rfemur -17.1743 3.72516 18.0976
rtibia 30.8273
rfoot -21.991 -18.5471
rtoes -1.95525
lfemur -29.8616 -3.49244 -10.8344
ltibia 30.6248
lfoot -6.77198 12.2184
ltoes -1.58734
233
root 0.653726 15.6958 6.98358 12.984 -6.25501 2.24437
lowerback 0.247931 -1.11233 1.82943
upperback -4.96117 -1.51465 -1.613
thorax -5.36408 -0.881049 -2.62224
lowerneck -6.25885 8.72062 12.634
upperneck 32.2118 14.7202 -13.3117
head 14.0222 6.55511 -5.39208
rclavicle 1.04176e-014 3.0911e-014
rhumerus -40.1235 28.7127 -92.0218
rradius 81.5515
rwrist -17.223
rhand -12.898 -10.4391
rfingers 7.12502
rthumb 13.1915 -40.0017
lclavicle 1.04176e-014 3.0911e-014
lhumerus -31.1571 -33.5539 78.8867
lradius 94.753
lwrist 12.0717
lhand -1.02929 18.6638
lfingers 7.12502
lthumb 24.6041 47.1025
rfemur -17.3398 3.83023 18.07
rtibia 30.8097
rfoot -21.9752 -18.7117
rtoes -1.6238
lfemur -29.5273 -3.19323 -11.4671
ltibia 31.619
lfoot -7.75703 12.0216
ltoes -2.45467
234
root 0.63994 15.7018 6.95448 13.1214 -6.01726 2.32238
lowerback 0.0491805 -1.09394 1.83492
upperback -4.99619 -1.49174 -1.60324
thorax -5.2858 -0.869221 -2.61968
lowerneck -6.34479 8.66265 12.591
upperneck 32.0383 14.6028 -13.2868
head 13.933 6.50166 -5.38208
rclavicle 8.47941e-015 -1.09332e-014
rhumerus -40.3989 28.2645 -92.1348
rradius 80.7151
rwrist -16.9254
rhand -13.1333 -10.2351
rfingers 7.12502
rthumb 12.9647 -39.8123
lclavicle 8.47941e-015 -1.09332e-014
lhumerus -33.4643 -32.455 80.9357
lradius 92.7474
lwrist 11.6196
lhand -1.14613 18.9347
lfingers 7.12502
lthumb 24.4921 47.3887
rfemur -17.5447 3.93164 18.0487
rtibia 30.7985
rfoot -21.9527 -18.8778
rtoes -1.31569
lfemur -29.2079 -2.98414 -12.0303
ltibia 32.5522
lfoot -8.71889 11.778
ltoes -3.41952
235
root 0.62759 15.707 6.92483 13.2817 -5.77772 2.3848
lowerback -0.137955 -1.08577 1.8434
upperback -5.04484 -1.48216 -1.58581
thorax -5.22926 -0.864377 -2.60981
lowerneck -6.43137 8.6114 12.5664
upperneck 31.8523 14.4946 -13.2749
head 13.844 6.453 -5.37863
rclavicle -1.7139e-014 -2.21645e-014
rhumerus -40.6896 27.8182 -92.2743
rradius 79.8494
rwrist -16.6556
rhand -13.3313 -10.0887
rfingers 7.12502
rthumb 12.7738 -39.6779
lclavicle -1.7139e-014 -2.21645e-014
lhumerus -35.577 -31.1169 82.7626
lradius 90.5878
lwrist 11.0662
lhand -1.20405 19.159
lfingers 7.12502
lthumb 24.4366 47.6204
rfemur -17.7808 4.0405 18.036
rtibia 30.7933
rfoot -21.9201 -19.055
rtoes -1.04614
lfemur -28.8969 -2.84782 -12.5314
ltibia 33.4281
lfoot -9.65429 11.4881
ltoes -4.44468
236
root 0.616456 15.7117 6.8959 13.4488 -5.56366 2.43143
lowerback -0.31504 -1.07438 1.85308
upperback -5.1049 -1.46805 -1.56369
thorax -5.19016 -0.857539 -2.59567
lowerneck -6.49969 8.56249 12.5602
upperneck 31.6515 14.3906 -13.2763
head 13.7489 6.40788 -5.38329
rclavicle -6.96989e-015 1.98785e-016
rhumerus -41.0056 27.3669 -92.4365
rradius 78.9565
rwrist -16.4106
rhand -13.4637 -10.0092
rfingers 7.12502
rthumb 12.6461 -39.6064
lclavicle -6.96989e-015 1.98785e-016
lhumerus -37.5035 -29.5692 84.3688
lradius 88.2937
lwrist 10.3885
lhand -1.26778 19.3505
lfingers 7.12502
lthumb 24.3755 47.8202
rfemur -18.0278 4.17427 18.0278
rtibia 30.791
rfoot -21.8868 -19.2296
rtoes -0.794254
lfemur -28.5601 -2.76307 -12.982
ltibia 34.24
lfoot -10.5562 11.1681
ltoes -5.51373
237
root 0.606763 15.7157 6.86817 13.6074 -5.36222 2.46726
lowerback -0.477065 -1.06238 1.86596
upperback -5.16956 -1.45277 -1.53765
thorax -5.16443 -0.850355 -2.57895
lowerneck -6.54924 8.51351 12.5661
upperneck 31.4354 14.2883 -13.2907
head 13.6462 6.36451 -5.39526
rclavicle -5.06901e-015 -2.80286e-014
rhumerus -41.3408 26.9185 -92.6118
rradius 78.0351
rwrist -16.1934
rhand -13.5124 -10.0314
rfingers 7.12502
rthumb 12.5993 -39.6314
lclavicle -5.06901e-015 -2.80286e-014
lhumerus -39.2513 -27.8274 85.7535
lradius 85.893
lwrist 9.54654
lhand -1.36426 19.5235
lfingers 7.12502
lthumb 24.283 48.0056
rfemur -18.2611 4.32248 18.022
rtibia 30.785
rfoot -21.855 -19.4052
rtoes -0.570056
lfemur -28.1812 -2.73209 -13.3941
ltibia 34.9813
lfoot -11.4023 10.828
ltoes -6.57412
238
root 0.598709 15.7191 6.84364 13.7439 -5.18451 2.4964
lowerback -0.638904 -1.04051 1.88463
upperback -5.2352 -1.42416 -1.5117
thorax -5.13926 -0.836792 -2.56608
lowerneck -6.56816 8.4594 12.5749
upperneck 31.2106 14.1798 -13.3054
head 13.5328 6.32019 -5.40972
rclavicle -9.16584e-015 -2.52953e-014
rhumerus -41.7029 26.456 -92.7924
rradius 77.081
rwrist -15.9906
rhand -13.5008 -10.0789
rfingers 7.12502
rthumb 12.6104 -39.6782
lclavicle -9.16584e-015 -2.52953e-014
lhumerus -40.8428 -25.9395 86.9314
lradius 83.4107
lwrist 8.54067
lhand -1.55169 19.6723
lfingers 7.12502
lthumb 24.1033 48.1783
rfemur -18.4585 4.47327 18.0127
rtibia 30.7751
rfoot -21.8406 -19.5591
rtoes -0.345982
lfemur -27.7263 -2.73652 -13.7854
ltibia 35.6398
lfoot -12.1797 10.4864
ltoes -7.5931
239
root 0.592208 15.7213 6.82258 13.8515 -5.03884 2.50702
lowerback -0.799704 -1.00577 1.91625
upperback -5.29493 -1.37792 -1.48325
thorax -5.10773 -0.81479 -2.55851
lowerneck -6.57016 8.40359 12.586
upperneck 30.9839 14.0677 -13.3131
head 13.4145 6.27591 -5.42279
rclavicle -5.45726e-015 1.40143e-014
rhumerus -42.0749 25.9849 -92.9733
rradius 76.0847
rwrist -15.7975
rhand -13.4329 -10.1593
rfingers 7.12502
rthumb 12.6759 -39.7546
lclavicle -5.45726e-015 1.40143e-014
lhumerus -42.2976 -23.9298 87.9017
lradius 80.8802
lwrist 7.37837
lhand -1.8221 19.8092
lfingers 7.12502
lthumb 23.844 48.3493
rfemur -18.6117 4.62841 18.0145
rtibia 30.7623
rfoot -21.8415 -19.6884
rtoes -0.146673
lfemur -27.1799 -2.75511 -14.1503
ltibia 36.2072
lfoot -12.86 10.1574
ltoes -8.57714
240
root 0.587452 15.7223 6.80326 13.9439 -4.90115 2.50958
lowerback -0.946741 -0.974145 1.94982
upperback -5.35502 -1.33559 -1.45059
thorax -5.08465 -0.794801 -2.54711
lowerneck -6.5691 8.35346 12.6032
upperneck 30.7575 13.9613 -13.3145
head 13.2976 6.23545 -5.4334
rclavicle -2.64011e-016 -4.05024e-015
rhumerus -42.4433 25.518 -93.1573
rradius 75.0505
rwrist -15.6114
rhand -13.3643 -10.1922
rfingers 7.12502
rthumb 12.742 -39.7834
lclavicle -2.64011e-016 -4.05024e-015
lhumerus -43.6276 -21.8 88.6508
lradius 78.3203
lwrist 6.12511
lhand -2.18443 19.8981
lfingers 7.12502
lthumb 23.4965 48.4831
rfemur -18.7439 4.76847 18.0188
rtibia 30.7519
rfoot -21.8531 -19.7964
rtoes 0.0443677
lfemur -26.5704 -2.80651 -14.4957
ltibia 36.6703
lfoot -13.4081 9.8489
ltoes -9.51676
